<mxfile host="Electron" agent="Mozilla/5.0 (Windows NT 10.0; Win64; x64) AppleWebKit/537.36 (KHTML, like Gecko) draw.io/24.7.17 Chrome/128.0.6613.36 Electron/32.0.1 Safari/537.36" version="24.7.17">
  <diagram name="Страница — 1" id="dy2lkkQt0frxxp9szOi0">
    <mxGraphModel dx="1098" dy="828" grid="1" gridSize="10" guides="1" tooltips="1" connect="1" arrows="1" fold="1" page="1" pageScale="1" pageWidth="827" pageHeight="1169" math="0" shadow="0">
      <root>
        <mxCell id="0" />
        <mxCell id="1" parent="0" />
        <mxCell id="aGB4ZSq93EdSWD5OueNf-1" value="&lt;font style=&quot;font-size: 16px;&quot;&gt;&lt;b&gt;Заголовок&lt;/b&gt;&lt;/font&gt;" style="rounded=0;whiteSpace=wrap;html=1;" parent="1" vertex="1">
          <mxGeometry x="40" y="40" width="160" height="60" as="geometry" />
        </mxCell>
        <mxCell id="aGB4ZSq93EdSWD5OueNf-17" style="edgeStyle=orthogonalEdgeStyle;rounded=0;orthogonalLoop=1;jettySize=auto;html=1;exitX=1;exitY=0.5;exitDx=0;exitDy=0;" parent="1" source="aGB4ZSq93EdSWD5OueNf-2" edge="1">
          <mxGeometry relative="1" as="geometry">
            <mxPoint x="690" y="80" as="targetPoint" />
          </mxGeometry>
        </mxCell>
        <mxCell id="aGB4ZSq93EdSWD5OueNf-2" value="&lt;p style=&quot;font-size: 14px;&quot; class=&quot;MsoNormal&quot;&gt;&lt;span lang=&quot;EN-US&quot;&gt;Добавление в&amp;nbsp;&lt;/span&gt;&lt;span style=&quot;text-align: left; background-color: initial;&quot;&gt;«Избранное»&lt;/span&gt;&lt;span style=&quot;background-color: initial;&quot;&gt;&amp;nbsp;и создание подборки товаров&lt;/span&gt;&lt;/p&gt;" style="rounded=0;whiteSpace=wrap;html=1;" parent="1" vertex="1">
          <mxGeometry x="200" y="40" width="520" height="60" as="geometry" />
        </mxCell>
        <mxCell id="aGB4ZSq93EdSWD5OueNf-3" value="&lt;span style=&quot;font-family: Cambria, serif;&quot; lang=&quot;EN-US&quot;&gt;&lt;b style=&quot;&quot;&gt;&lt;font style=&quot;font-size: 16px;&quot;&gt;Акторы&lt;/font&gt;&lt;/b&gt;&lt;/span&gt;" style="rounded=0;whiteSpace=wrap;html=1;" parent="1" vertex="1">
          <mxGeometry x="40" y="100" width="160" height="60" as="geometry" />
        </mxCell>
        <mxCell id="aGB4ZSq93EdSWD5OueNf-4" value="&lt;p class=&quot;MsoNormal&quot;&gt;&lt;span style=&quot;font-size: 15px; line-height: 115%; font-family: Cambria, serif;&quot; lang=&quot;EN-US&quot;&gt;Пользователь&lt;/span&gt;&lt;br&gt;&lt;/p&gt;" style="rounded=0;whiteSpace=wrap;html=1;" parent="1" vertex="1">
          <mxGeometry x="200" y="100" width="520" height="60" as="geometry" />
        </mxCell>
        <mxCell id="aGB4ZSq93EdSWD5OueNf-5" value="&lt;span style=&quot;line-height: 115%; font-family: Cambria, serif;&quot; lang=&quot;EN-US&quot;&gt;&lt;b style=&quot;&quot;&gt;&lt;font style=&quot;font-size: 16px;&quot;&gt;Предусловие&lt;/font&gt;&lt;/b&gt;&lt;/span&gt;" style="rounded=0;whiteSpace=wrap;html=1;" parent="1" vertex="1">
          <mxGeometry x="40" y="160" width="160" height="60" as="geometry" />
        </mxCell>
        <mxCell id="aGB4ZSq93EdSWD5OueNf-6" value="&lt;span style=&quot;font-family: Cambria, serif;&quot; lang=&quot;EN-US&quot;&gt;&lt;b style=&quot;&quot;&gt;&lt;font style=&quot;font-size: 16px;&quot;&gt;Ограничения&lt;/font&gt;&lt;/b&gt;&lt;/span&gt;" style="rounded=0;whiteSpace=wrap;html=1;" parent="1" vertex="1">
          <mxGeometry x="40" y="220" width="160" height="130" as="geometry" />
        </mxCell>
        <mxCell id="aGB4ZSq93EdSWD5OueNf-7" value="&lt;span style=&quot;line-height: 115%; font-family: Cambria, serif;&quot; lang=&quot;EN-US&quot;&gt;&lt;b style=&quot;&quot;&gt;&lt;font style=&quot;font-size: 16px;&quot;&gt;Триггер&lt;/font&gt;&lt;/b&gt;&lt;/span&gt;" style="rounded=0;whiteSpace=wrap;html=1;" parent="1" vertex="1">
          <mxGeometry x="40" y="350" width="160" height="60" as="geometry" />
        </mxCell>
        <mxCell id="aGB4ZSq93EdSWD5OueNf-8" value="&lt;span style=&quot;line-height: 115%; font-family: Cambria, serif;&quot; lang=&quot;EN-US&quot;&gt;&lt;b style=&quot;&quot;&gt;&lt;font style=&quot;font-size: 16px;&quot;&gt;Основной&lt;br/&gt;сценарий&lt;/font&gt;&lt;/b&gt;&lt;/span&gt;" style="rounded=0;whiteSpace=wrap;html=1;" parent="1" vertex="1">
          <mxGeometry x="40" y="410" width="160" height="190" as="geometry" />
        </mxCell>
        <mxCell id="aGB4ZSq93EdSWD5OueNf-9" value="&lt;span style=&quot;line-height: 115%; font-family: Cambria, serif;&quot; lang=&quot;EN-US&quot;&gt;&lt;b style=&quot;&quot;&gt;&lt;font style=&quot;font-size: 16px;&quot;&gt;Альтернативный&lt;br/&gt;сценарий&lt;/font&gt;&lt;/b&gt;&lt;/span&gt;" style="rounded=0;whiteSpace=wrap;html=1;" parent="1" vertex="1">
          <mxGeometry x="40" y="600" width="160" height="100" as="geometry" />
        </mxCell>
        <mxCell id="aGB4ZSq93EdSWD5OueNf-10" value="&lt;span style=&quot;font-size: 16px; font-family: Cambria, serif;&quot; lang=&quot;EN-US&quot;&gt;&lt;b&gt;Исключительный&lt;br&gt;сценарий&lt;/b&gt;&lt;/span&gt;" style="rounded=0;whiteSpace=wrap;html=1;" parent="1" vertex="1">
          <mxGeometry x="40" y="700" width="160" height="100" as="geometry" />
        </mxCell>
        <mxCell id="aGB4ZSq93EdSWD5OueNf-11" value="&lt;p class=&quot;MsoNormal&quot;&gt;&lt;span style=&quot;font-size:11.0pt;line-height:&lt;br/&gt;115%;font-family:&amp;quot;Cambria&amp;quot;,serif;mso-ascii-theme-font:minor-latin;mso-fareast-font-family:&lt;br/&gt;&amp;quot;MS Mincho&amp;quot;;mso-fareast-theme-font:minor-fareast;mso-hansi-theme-font:minor-latin;&lt;br/&gt;mso-bidi-font-family:&amp;quot;Times New Roman&amp;quot;;mso-bidi-theme-font:minor-bidi;&lt;br/&gt;mso-ansi-language:EN-US;mso-fareast-language:EN-US;mso-bidi-language:AR-SA&quot; lang=&quot;EN-US&quot;&gt;Пользователь&lt;br/&gt;авторизован в системе и находится на странице с каталогом товаров&lt;/span&gt;&lt;br&gt;&lt;/p&gt;" style="rounded=0;whiteSpace=wrap;html=1;" parent="1" vertex="1">
          <mxGeometry x="200" y="160" width="520" height="60" as="geometry" />
        </mxCell>
        <mxCell id="aGB4ZSq93EdSWD5OueNf-12" value="&lt;p style=&quot;font-size: 14px;&quot; class=&quot;MsoNormal&quot;&gt;&lt;span lang=&quot;EN-US&quot;&gt;- Пользователь должен иметь возможность&lt;br&gt;добавлять товары в избранное&lt;br&gt;&lt;br&gt;- Для создания подборки необходимо выбрать минимум два товара&lt;br&gt;&lt;br&gt;- Интерфейс должен поддерживать возможность создания и сохранения подборок&lt;/span&gt;&lt;/p&gt;" style="rounded=0;whiteSpace=wrap;html=1;" parent="1" vertex="1">
          <mxGeometry x="200" y="220" width="520" height="130" as="geometry" />
        </mxCell>
        <mxCell id="aGB4ZSq93EdSWD5OueNf-13" value="&lt;p style=&quot;font-size: 14px;&quot; class=&quot;MsoNormal&quot;&gt;&lt;span lang=&quot;EN-US&quot;&gt;Пользователь выбирает один или несколько&lt;br&gt;товаров и добавляет их в избранное&lt;/span&gt;&lt;/p&gt;" style="rounded=0;whiteSpace=wrap;html=1;" parent="1" vertex="1">
          <mxGeometry x="200" y="350" width="520" height="60" as="geometry" />
        </mxCell>
        <mxCell id="aGB4ZSq93EdSWD5OueNf-14" value="&lt;p style=&quot;font-size: 14px; margin-top: 0px; margin-bottom: 0px;&quot; class=&quot;MsoNormal&quot;&gt;&lt;font style=&quot;font-size: 14px;&quot;&gt;1. Пользователь вводит запрос в строку поиска для поиска товаров в каталоге.&lt;/font&gt;&lt;/p&gt;&lt;p style=&quot;font-size: 14px; margin-top: 0px; margin-bottom: 0px;&quot; class=&quot;MsoNormal&quot;&gt;&lt;span style=&quot;background-color: initial;&quot;&gt;&lt;font style=&quot;font-size: 14px;&quot;&gt;2. Система отображает список товаров по запросу клиента.&lt;/font&gt;&lt;/span&gt;&lt;/p&gt;&lt;p style=&quot;font-size: 14px; margin-top: 0px; padding-bottom: 0px; padding-left: 0px; margin-bottom: 0px;&quot; class=&quot;MsoNormal&quot;&gt;&lt;font style=&quot;font-size: 14px;&quot;&gt;3.&amp;nbsp;&lt;span style=&quot;background-color: initial;&quot;&gt;Пользователь в&lt;/span&gt;&lt;span style=&quot;background-color: initial;&quot;&gt;ыбирает товар, нажимая на иконку сердца.&lt;/span&gt;&lt;/font&gt;&lt;/p&gt;&lt;p style=&quot;font-size: 14px; margin-top: 0px; margin-bottom: 0px;&quot; class=&quot;MsoNormal&quot;&gt;&lt;span style=&quot;background-color: initial;&quot;&gt;&lt;font style=&quot;font-size: 14px;&quot;&gt;4. Система предлагает сделать подборку и спрашивает у клиента название для новой подборки.&lt;/font&gt;&lt;/span&gt;&lt;/p&gt;&lt;p style=&quot;font-size: 14px; margin-top: 0px; margin-bottom: 0px;&quot; class=&quot;MsoNormal&quot;&gt;&lt;span style=&quot;background-color: initial;&quot;&gt;&lt;font style=&quot;font-size: 14px;&quot;&gt;5. Пользователь вводит название и подтверждает создание подборки.&lt;/font&gt;&lt;/span&gt;&lt;/p&gt;&lt;div style=&quot;font-size: 14px; margin-right: 0px; padding-bottom: 0px;&quot;&gt;&lt;font style=&quot;font-size: 14px;&quot;&gt;6. Система сохраняет подборку и делает её доступной в разделе «Подборки».&lt;/font&gt;&lt;/div&gt;&lt;div style=&quot;font-size: 14px;&quot;&gt;&lt;font style=&quot;font-size: 14px;&quot;&gt;&lt;span style=&quot;background-color: initial;&quot;&gt;7. Пользователь может просматривать&amp;nbsp;&lt;/span&gt;&lt;span style=&quot;background-color: initial;&quot;&gt;«Избранное»&amp;nbsp;&lt;/span&gt;&lt;span style=&quot;background-color: initial;&quot;&gt;и редактировать свои подборки, возвращаясь к ним через интерфейс.&lt;/span&gt;&lt;/font&gt;&lt;br&gt;&lt;/div&gt;" style="rounded=0;whiteSpace=wrap;html=1;strokeColor=default;align=left;verticalAlign=middle;fontFamily=Helvetica;fontSize=12;fontColor=default;fillColor=default;" parent="1" vertex="1">
          <mxGeometry x="200" y="410" width="520" height="190" as="geometry" />
        </mxCell>
        <mxCell id="aGB4ZSq93EdSWD5OueNf-15" value="&lt;div style=&quot;font-size: 14px;&quot;&gt;&lt;div style=&quot;&quot;&gt;&lt;span style=&quot;background-color: initial;&quot;&gt;4a. Система добавляет выбранные товары в раздел «Избранное»&lt;/span&gt;&lt;br&gt;&lt;/div&gt;&lt;/div&gt;&lt;div style=&quot;font-size: 14px;&quot;&gt;&lt;font style=&quot;font-size: 14px;&quot;&gt;-- переход к шагу 7 основного сценария&lt;/font&gt;&lt;/div&gt;" style="rounded=0;whiteSpace=wrap;html=1;align=left;" parent="1" vertex="1">
          <mxGeometry x="200" y="600" width="520" height="100" as="geometry" />
        </mxCell>
        <mxCell id="aGB4ZSq93EdSWD5OueNf-18" value="&lt;p style=&quot;font-size: 14px;&quot; class=&quot;MsoNormal&quot;&gt;&lt;span style=&quot;background-color: initial;&quot;&gt;&lt;br&gt;&lt;/span&gt;&lt;/p&gt;&lt;p style=&quot;font-size: 14px;&quot; class=&quot;MsoNormal&quot;&gt;&lt;span style=&quot;background-color: initial;&quot;&gt;- Если товары не выбраны, система не&amp;nbsp;&lt;/span&gt;&lt;span style=&quot;background-color: initial;&quot;&gt;позволяет добавить в&amp;nbsp;&lt;/span&gt;&lt;span style=&quot;text-align: left; background-color: initial;&quot;&gt;«Избранное» или&amp;nbsp;&lt;/span&gt;&lt;span style=&quot;background-color: initial;&quot;&gt;создать подборку.&lt;/span&gt;&lt;/p&gt;&lt;p style=&quot;font-size: 14px;&quot; class=&quot;MsoNormal&quot;&gt;&lt;span style=&quot;background-color: initial;&quot;&gt;- Если возникли технические проблемы, приложение сообщает об ошибке и предлагает повторить действие позже.&lt;/span&gt;&lt;/p&gt;&lt;font style=&quot;font-size: 14px;&quot;&gt;&lt;br&gt;&lt;br&gt;&lt;/font&gt;" style="rounded=0;whiteSpace=wrap;html=1;" parent="1" vertex="1">
          <mxGeometry x="200" y="700" width="520" height="100" as="geometry" />
        </mxCell>
      </root>
    </mxGraphModel>
  </diagram>
</mxfile>
